<svg width="24" height="24" viewBox="0 0 24 24" fill="none" xmlns="http://www.w3.org/2000/svg">
<mask id="mask0_338_11593" style="mask-type:alpha" maskUnits="userSpaceOnUse" x="0" y="0" width="24" height="24">
<rect width="24" height="24" fill="#D9D9D9"/>
</mask>
<g mask="url(#mask0_338_11593)">
<path d="M9.00005 13C8.71672 13 8.47922 12.9042 8.28755 12.7125C8.09588 12.5208 8.00005 12.2833 8.00005 12V5.825L6.12505 7.7C5.94172 7.88334 5.71255 7.975 5.43755 7.975C5.16255 7.975 4.92505 7.88334 4.72505 7.7C4.52505 7.5 4.42505 7.2625 4.42505 6.9875C4.42505 6.7125 4.52505 6.475 4.72505 6.275L8.30005 2.7C8.40005 2.6 8.50838 2.52917 8.62505 2.4875C8.74172 2.44584 8.86672 2.425 9.00005 2.425C9.13338 2.425 9.25838 2.44584 9.37505 2.4875C9.49172 2.52917 9.60005 2.6 9.70005 2.7L13.3 6.3C13.5 6.5 13.5959 6.73334 13.5875 7C13.5792 7.26667 13.475 7.5 13.275 7.7C13.075 7.88334 12.8417 7.97917 12.575 7.9875C12.3084 7.99584 12.075 7.9 11.875 7.7L10 5.825V12C10 12.2833 9.90422 12.5208 9.71255 12.7125C9.52088 12.9042 9.28338 13 9.00005 13ZM15 21.575C14.8667 21.575 14.7417 21.5542 14.625 21.5125C14.5084 21.4708 14.4 21.4 14.3 21.3L10.7 17.7C10.5 17.5 10.4042 17.2667 10.4125 17C10.4209 16.7333 10.525 16.5 10.725 16.3C10.925 16.1167 11.1584 16.0208 11.425 16.0125C11.6917 16.0042 11.925 16.1 12.125 16.3L14 18.175V12C14 11.7167 14.0959 11.4792 14.2875 11.2875C14.4792 11.0958 14.7167 11 15 11C15.2834 11 15.5209 11.0958 15.7125 11.2875C15.9042 11.4792 16 11.7167 16 12V18.175L17.875 16.3C18.0584 16.1167 18.2875 16.025 18.5625 16.025C18.8375 16.025 19.075 16.1167 19.275 16.3C19.475 16.5 19.575 16.7375 19.575 17.0125C19.575 17.2875 19.475 17.525 19.275 17.725L15.7 21.3C15.6 21.4 15.4917 21.4708 15.375 21.5125C15.2584 21.5542 15.1334 21.575 15 21.575Z" fill="#98A3B5"/>
</g>
</svg>
